<svg width="33" height="32" viewBox="0 0 33 32" fill="none" xmlns="http://www.w3.org/2000/svg">
<path d="M31.5 16C31.5063 18.3815 30.7337 20.6997 29.3 22.6013C29.2211 22.7063 29.1222 22.7948 29.009 22.8616C28.8959 22.9285 28.7707 22.9724 28.6405 22.9908C28.5104 23.0093 28.3779 23.0019 28.2507 22.9692C28.1234 22.9365 28.0038 22.879 27.8988 22.8C27.7937 22.721 27.7052 22.6222 27.6384 22.509C27.5715 22.3959 27.5276 22.2707 27.5092 22.1405C27.4907 22.0104 27.4981 21.8779 27.5308 21.7507C27.5636 21.6234 27.6211 21.5038 27.7 21.3988C28.8735 19.8441 29.5057 17.9479 29.5 16C29.5 13.6131 28.5518 11.3239 26.864 9.63604C25.1761 7.94822 22.887 7.00001 20.5 7.00001C18.1131 7.00001 15.8239 7.94822 14.136 9.63604C12.4482 11.3239 11.5 13.6131 11.5 16C11.5 16.2652 11.3946 16.5196 11.2071 16.7071C11.0196 16.8946 10.7652 17 10.5 17C10.2348 17 9.98044 16.8946 9.7929 16.7071C9.60536 16.5196 9.50001 16.2652 9.50001 16C9.49952 14.9909 9.6379 13.9864 9.91126 13.015C9.77501 13 9.63751 13 9.50001 13C7.90871 13 6.38258 13.6321 5.25737 14.7574C4.13215 15.8826 3.50001 17.4087 3.50001 19C3.50001 20.5913 4.13215 22.1174 5.25737 23.2426C6.38258 24.3679 7.90871 25 9.50001 25H12.5C12.7652 25 13.0196 25.1054 13.2071 25.2929C13.3946 25.4804 13.5 25.7348 13.5 26C13.5 26.2652 13.3946 26.5196 13.2071 26.7071C13.0196 26.8946 12.7652 27 12.5 27H9.50001C8.40023 27.0003 7.3122 26.7737 6.3039 26.3346C5.29559 25.8955 4.38865 25.2532 3.63972 24.4478C2.8908 23.6424 2.31598 22.6913 1.95115 21.6538C1.58633 20.6163 1.43935 19.5147 1.51938 18.4178C1.59941 17.321 1.90475 16.2524 2.41631 15.2788C2.92787 14.3053 3.63467 13.4476 4.49257 12.7595C5.35047 12.0714 6.34104 11.5675 7.40241 11.2794C8.46378 10.9913 9.57316 10.9251 10.6613 11.085C11.7693 8.86895 13.5929 7.09185 15.8369 6.04154C18.0809 4.99124 20.6137 4.72925 23.0252 5.29801C25.4366 5.86677 27.5854 7.23297 29.1236 9.17532C30.6617 11.1177 31.4991 13.5224 31.5 16ZM20.2075 15.2925C20.1146 15.1995 20.0043 15.1258 19.8829 15.0754C19.7615 15.0251 19.6314 14.9992 19.5 14.9992C19.3686 14.9992 19.2385 15.0251 19.1171 15.0754C18.9957 15.1258 18.8854 15.1995 18.7925 15.2925L14.7925 19.2925C14.6996 19.3854 14.6259 19.4957 14.5756 19.6171C14.5253 19.7385 14.4995 19.8686 14.4995 20C14.4995 20.1314 14.5253 20.2615 14.5756 20.3829C14.6259 20.5043 14.6996 20.6146 14.7925 20.7075C14.9801 20.8951 15.2346 21.0006 15.5 21.0006C15.6314 21.0006 15.7615 20.9747 15.8829 20.9244C16.0043 20.8741 16.1146 20.8004 16.2075 20.7075L18.5 18.4138V26C18.5 26.2652 18.6054 26.5196 18.7929 26.7071C18.9804 26.8946 19.2348 27 19.5 27C19.7652 27 20.0196 26.8946 20.2071 26.7071C20.3947 26.5196 20.5 26.2652 20.5 26V18.4138L22.7925 20.7075C22.8854 20.8004 22.9957 20.8741 23.1171 20.9244C23.2385 20.9747 23.3686 21.0006 23.5 21.0006C23.6314 21.0006 23.7615 20.9747 23.8829 20.9244C24.0043 20.8741 24.1146 20.8004 24.2075 20.7075C24.3004 20.6146 24.3741 20.5043 24.4244 20.3829C24.4747 20.2615 24.5006 20.1314 24.5006 20C24.5006 19.8686 24.4747 19.7385 24.4244 19.6171C24.3741 19.4957 24.3004 19.3854 24.2075 19.2925L20.2075 15.2925Z" fill="#4B5563"/>
</svg>
