<svg width="25" height="24" viewBox="0 0 25 24" fill="none" xmlns="http://www.w3.org/2000/svg">
<path d="M23.9999 12C24.0046 13.7861 23.4252 15.5248 22.3499 16.9509C22.2907 17.0297 22.2165 17.0961 22.1317 17.1462C22.0468 17.1964 21.9529 17.2293 21.8553 17.2431C21.7577 17.257 21.6584 17.2514 21.5629 17.2269C21.4675 17.2023 21.3778 17.1592 21.299 17.1C21.2202 17.0408 21.1538 16.9666 21.1037 16.8818C21.0536 16.7969 21.0206 16.703 21.0068 16.6054C20.9929 16.5078 20.9985 16.4085 21.023 16.313C21.0476 16.2175 21.0907 16.1279 21.1499 16.0491C22.0301 14.883 22.5042 13.4609 22.4999 12C22.4999 10.2098 21.7888 8.4929 20.5229 7.22703C19.257 5.96115 17.5401 5.25 15.7499 5.25C13.9597 5.25 12.2428 5.96115 10.9769 7.22703C9.71107 8.4929 8.99991 10.2098 8.99991 12C8.99991 12.1989 8.9209 12.3897 8.78024 12.5303C8.63959 12.671 8.44883 12.75 8.24991 12.75C8.051 12.75 7.86024 12.671 7.71958 12.5303C7.57893 12.3897 7.49991 12.1989 7.49991 12C7.49955 11.2431 7.60333 10.4898 7.80835 9.76125C7.70616 9.75 7.60304 9.75 7.49991 9.75C6.30644 9.75 5.16185 10.2241 4.31793 11.068C3.47402 11.9119 2.99991 13.0565 2.99991 14.25C2.99991 15.4435 3.47402 16.5881 4.31793 17.432C5.16185 18.2759 6.30644 18.75 7.49991 18.75H9.74991C9.94883 18.75 10.1396 18.829 10.2802 18.9697C10.4209 19.1103 10.4999 19.3011 10.4999 19.5C10.4999 19.6989 10.4209 19.8897 10.2802 20.0303C10.1396 20.171 9.94883 20.25 9.74991 20.25H7.49991C6.67508 20.2502 5.85906 20.0803 5.10283 19.751C4.3466 19.4216 3.66639 18.9399 3.1047 18.3359C2.54301 17.7318 2.11189 17.0185 1.83827 16.2403C1.56466 15.4622 1.45442 14.636 1.51444 13.8134C1.57447 12.9907 1.80347 12.1893 2.18714 11.4591C2.57081 10.7289 3.10091 10.0857 3.74434 9.56961C4.38776 9.05351 5.13069 8.67562 5.92672 8.45954C6.72275 8.24346 7.55478 8.19383 8.37085 8.31375C9.20185 6.65171 10.5696 5.31888 12.2526 4.53115C13.9356 3.74342 15.8352 3.54693 17.6438 3.9735C19.4524 4.40007 21.064 5.42472 22.2176 6.88148C23.3712 8.33824 23.9992 10.1418 23.9999 12ZM17.4693 15.9694L15.7499 17.6897V12C15.7499 11.8011 15.6709 11.6103 15.5302 11.4697C15.3896 11.329 15.1988 11.25 14.9999 11.25C14.801 11.25 14.6102 11.329 14.4696 11.4697C14.3289 11.6103 14.2499 11.8011 14.2499 12V17.6897L12.5305 15.9694C12.3898 15.8286 12.1989 15.7496 11.9999 15.7496C11.8009 15.7496 11.61 15.8286 11.4693 15.9694C11.3286 16.1101 11.2495 16.301 11.2495 16.5C11.2495 16.699 11.3286 16.8899 11.4693 17.0306L14.4693 20.0306C14.5389 20.1004 14.6217 20.1557 14.7127 20.1934C14.8038 20.2312 14.9014 20.2506 14.9999 20.2506C15.0985 20.2506 15.1961 20.2312 15.2871 20.1934C15.3782 20.1557 15.4609 20.1004 15.5305 20.0306L18.5305 17.0306C18.6713 16.8899 18.7503 16.699 18.7503 16.5C18.7503 16.301 18.6713 16.1101 18.5305 15.9694C18.3898 15.8286 18.1989 15.7496 17.9999 15.7496C17.8009 15.7496 17.61 15.8286 17.4693 15.9694Z" fill="#F8FAFC"/>
</svg>
